<?xml version="1.0" standalone="no"?>
<!DOCTYPE svg PUBLIC "-//W3C//DTD SVG 20010904//EN"
 "http://www.w3.org/TR/2001/REC-SVG-20010904/DTD/svg10.dtd">
<svg version="1.0" xmlns="http://www.w3.org/2000/svg"
 width="512.000000pt" height="512.000000pt" viewBox="0 0 512.000000 512.000000"
 preserveAspectRatio="xMidYMid meet">

<g transform="translate(0.000000,512.000000) scale(0.100000,-0.100000)"
fill="#000000" stroke="none">
<path d="M3340 3509 c-74 -5 -191 -12 -260 -15 -69 -3 -129 -9 -134 -15 -6 -5
-74 -9 -151 -9 -78 0 -166 -4 -196 -10 -66 -11 -144 -17 -362 -26 -92 -4 -170
-11 -173 -15 -3 -5 -78 -9 -168 -9 -89 0 -166 -4 -172 -9 -5 -6 -67 -12 -139
-15 -167 -6 -258 -15 -269 -27 -6 -5 -17 -9 -25 -9 -24 0 -119 -79 -156 -131
-21 -30 -35 -61 -35 -78 0 -17 -4 -33 -10 -36 -13 -8 -13 -162 0 -170 6 -4 10
-70 10 -165 0 -95 4 -161 10 -165 6 -4 10 -60 10 -136 0 -71 4 -137 9 -147 12
-21 31 -282 31 -409 0 -51 4 -95 10 -98 5 -3 10 -15 10 -26 0 -39 110 -159
170 -186 69 -31 115 -35 300 -24 101 6 234 11 295 11 61 0 115 4 120 9 10 9
96 15 410 26 77 3 149 9 160 15 11 5 83 12 160 15 77 3 203 11 280 16 77 5
210 14 295 19 281 17 325 21 335 31 5 5 17 9 26 9 9 0 30 7 45 15 44 22 134
105 134 123 0 8 11 30 25 48 24 32 25 37 25 202 0 139 -3 172 -15 182 -12 10
-15 38 -15 136 0 71 -4 125 -10 129 -6 4 -10 69 -11 158 -2 282 -23 539 -45
558 -8 6 -14 19 -14 29 0 30 -55 120 -73 120 -6 0 -20 9 -31 19 -69 63 -155
76 -406 60z m303 -101 c30 -17 117 -100 117 -112 0 -5 6 -17 14 -25 11 -12 17
-73 26 -241 17 -363 27 -505 45 -670 27 -252 30 -363 8 -397 -57 -90 -96 -120
-198 -153 -24 -8 -146 -17 -307 -24 -146 -6 -270 -14 -274 -18 -4 -5 -71 -8
-149 -8 -77 0 -145 -4 -150 -9 -6 -5 -77 -12 -160 -15 -82 -4 -195 -10 -250
-15 -55 -5 -181 -12 -280 -16 -99 -4 -189 -10 -200 -16 -11 -5 -81 -11 -155
-13 -74 -3 -163 -8 -196 -11 -51 -6 -69 -3 -105 14 -23 12 -47 21 -52 21 -4 0
-30 22 -56 49 -62 64 -58 41 -82 461 -6 107 -15 199 -20 205 -5 5 -9 73 -9
151 0 85 -4 145 -10 149 -6 4 -10 63 -10 146 0 92 -4 146 -12 159 -10 15 -10
26 0 53 7 18 12 42 12 53 0 10 16 37 35 58 19 22 35 43 35 48 0 4 5 8 10 8 6
0 30 9 52 20 26 12 62 20 95 20 29 0 61 4 71 9 19 10 340 31 474 31 48 0 90 5
93 10 4 6 67 10 155 10 88 0 151 4 155 10 4 6 60 10 135 10 75 0 131 4 135 10
4 6 63 10 145 10 82 0 141 4 145 10 4 6 67 10 155 10 88 0 151 4 155 10 9 15
380 13 408 -2z"/>
<path d="M3255 3073 c-27 -2 -59 -7 -70 -12 -11 -5 -135 -12 -275 -15 -226 -6
-258 -8 -280 -25 -32 -23 -37 -56 -12 -70 30 -16 625 11 648 30 5 4 52 10 103
11 83 3 95 5 108 25 13 19 12 24 -6 42 -22 22 -65 24 -216 14z"/>
<path d="M1835 3030 c-3 -5 -15 -10 -27 -10 -24 0 -77 -44 -130 -109 -38 -45
-38 -47 -38 -133 0 -48 5 -90 10 -93 6 -3 10 -14 10 -24 0 -10 9 -26 20 -36
11 -10 28 -33 39 -51 l20 -33 -50 -35 c-27 -20 -49 -42 -49 -49 0 -7 -13 -26
-30 -42 -16 -16 -30 -38 -30 -50 0 -11 -5 -26 -10 -31 -6 -6 -16 -52 -23 -103
-9 -72 -8 -101 2 -139 13 -52 45 -92 72 -92 9 0 30 -7 45 -15 16 -8 38 -15 50
-15 11 0 26 -6 32 -12 9 -9 57 -14 148 -16 111 -3 139 -1 159 12 13 9 34 16
45 16 69 0 192 66 238 129 32 44 31 136 -3 197 -14 25 -25 51 -25 60 0 36 -89
140 -167 193 -38 26 -40 39 -13 74 11 14 20 34 20 45 0 12 5 24 10 27 6 3 10
37 10 74 0 92 -30 154 -102 207 -29 22 -69 45 -89 52 -43 15 -135 16 -144 2z
m108 -96 c46 -8 117 -75 117 -110 0 -12 5 -26 10 -29 17 -10 11 -47 -15 -99
-20 -40 -34 -53 -77 -73 -65 -31 -114 -26 -172 14 -97 68 -102 195 -10 262 53
39 80 46 147 35z m23 -429 c16 -8 38 -15 50 -15 55 0 175 -99 206 -170 34 -76
50 -132 44 -154 -11 -46 -155 -116 -237 -116 -21 0 -41 -4 -44 -10 -3 -5 -39
-10 -80 -10 -41 0 -77 5 -80 10 -3 6 -23 10 -44 10 -33 0 -70 12 -121 39 -12
7 -15 28 -15 97 0 72 5 98 23 135 43 87 139 169 197 169 13 0 28 7 35 15 16
19 30 19 66 0z"/>
<path d="M3425 2650 c-4 -6 -63 -10 -143 -10 -127 0 -481 -22 -580 -35 -46 -7
-71 -37 -58 -70 7 -18 29 -18 551 5 299 13 315 16 315 65 0 40 -66 75 -85 45z"/>
<path d="M3370 2220 c-8 -5 -72 -10 -142 -10 -74 0 -129 -4 -133 -10 -4 -6
-61 -10 -139 -10 -72 0 -136 -4 -142 -9 -5 -6 -38 -11 -74 -13 l-65 -3 0 -40
0 -40 114 -3 c69 -2 118 1 125 8 6 6 59 10 126 10 64 0 120 4 125 9 6 5 83 13
173 17 137 6 167 10 187 25 22 18 23 21 8 49 -14 29 -17 30 -81 30 -37 0 -74
-5 -82 -10z"/>
</g>
</svg>
